<?xml version="1.0" encoding="UTF-8"?>
<svg id="Layer_1" data-name="Layer 1" xmlns="http://www.w3.org/2000/svg" viewBox="0 0 2200.35 1275.25">
  <defs>
    <style>
      .cls-1 {
        fill: #fff;
        stroke: #231f20;
        stroke-miterlimit: 10;
      }
    </style>
  </defs>
  <circle class="cls-1" cx="1045.29" cy="805.01" r="218.51"/>
  <g>
    <path d="M1110,31.25l171.55-.05c106.03-1.54,171.35,113.81,98.97,198.06-1.49,1.74-10.61,9.45-9.51,10.97,34.74,15.26,64.55,39.85,74.71,77.8,23.56,87.98-39.09,162.98-126.17,170.26l-209.54-.04V31.25ZM1234,292.25v-81.5l1.5-1.5h40c1.39,0,10.61-3.53,12.54-4.46,33.8-16.16,37.87-64.31,5.26-84.35-3.57-2.2-15.04-7.2-18.8-7.2h-69.5v296h92.5c28.95,0,52.74-30,53.12-57.67.36-25.85-22.38-59.33-50.12-59.33h-66.5Z"/>
    <path d="M0,31.25l185.54-.04c89.84,8.07,150.2,98.14,117.22,184.31-15.73,41.11-53.1,72.24-95.76,82.23l133.99,190.51h-114.5l-96.5-148.5v-110.5h30.5c4.36,0,17.83-4.7,22.19-6.81,44.61-21.6,45.67-82.22,2.33-105.7-4.32-2.34-17.08-7.48-21.52-7.48h-66.5v379H0V31.25Z"/>
    <path d="M986,9.25v479h-91v-30c-1.68-.36-2.02.53-2.98,1.52-62.03,63.74-161.55,40.43-203.54-33.5-69.3-122.01,44.68-279.89,179.54-211.54l26.98,19.52V9.25h91ZM825.8,271.55c-57.88,4.34-80.86,79.29-45.77,122.17,32.01,39.12,87.84,29.79,109.52-14.43,22.98-46.88-8.13-111.91-63.75-107.74Z"/>
    <path d="M1547.72,890.54c4.56,3.92,5.46,20.49,8.41,26.09,2.13,4.06,8.88,7.8,11.92,11.08,4.22,4.55,8.35,12.03,13.45,15.55,2.89,2,7.24,2.35,8.98,4.02,2.11,2.03,6.86,19.65,5.53,20.98-7.62.12-14.23,1.94-21.74-.77-8.21-2.97-11.78-15.88-19.03-17.07-4.14-.68-6.91,3.15-10.8,3.77-13.11,2.09-19.9-9.09-30.14-14.74-10.85-5.98-23.34-9.09-35.79-8.18-9.24.68-10.81,3.74-20.87-.16-19.38-7.51-28.87-19.56-30.51-40.48-.14-1.82-1.03-9.18,2.35-8.37,1.16.28,10.17,16.69,13,20.01,28.08,32.88,52,6.48,84.18,23.82,3.5,1.89,17.69,13.2,18.83,13.15,4.44-.2-1.84-7.83-2.97-9.01-5.87-6.12-15.94-12.41-24-15-27.77-8.93-51.92,9.47-71.95-23.05-11.54-18.73-9.54-36.37-16.32-55.7-1.82-5.2-6.44-7.79-6.2-1.87.21,5.06,2.6,11.78,2.93,17.16,2.53,41.83-31.68,27.7-58.48,29.5-16.84,1.13-33.43,7.29-50.51,5.98.45-4.49,6.16-13.19,2.5-17-4.71-4.91-7.3,7.84-8.67,10.35-6.48,11.9-15.78,11.82-24.76,18.24-2.78,1.99-15.27,14.49-15.87,17.13-3.05,13.26,21.36,21.28,31.08,19.07,9.16-2.08,7.68-19.73,17.68-22.31,4.34-1.12,23.44-1.72,25.6,2.54.94,1.85-8.14,16.39-10.05,18.01-3.18,2.69-10.67,1.9-12.28,4.22-.92,1.32-1.43,8.43-3.03,11.47-3.94,7.5-11.37,10.23-19.47,9.05-5.54-.81-34.39-9.36-39.29-11.71-3.58-1.72-6.25-6.41-9.49-7.51-5.85-1.98-12.85,2.28-16.16-3.84-1.7-3.15-7.39-22.05-7.57-25.51-.15-2.78.55-5.36,1.59-7.89,1.32-3.19,15.73-28.92,17.2-29.82,3.27-2,8.62,1.77,11.92,2.59,1.9,2.69-15.64,23.39-16.68,29.65s1.5,16.5,6.75,20.26c-2.63-9.41-.26-16.21,4.2-24.31,3.38-6.12,14.89-19.32,14.9-25.19.01-8.94-11.47-11.6-16.74-16.86-11.87-11.85-13.8-33.88-14.79-49.74-1.97-4-4.98-3.81-6.31.85-3.51,12.35.81,29.57,4.98,41.5,1.01,2.89,6.71,12.82,5.34,14.78-2.64,3.78-23.73.66-28.38-.74-2.57-.77-5.16-2.19-7.5-3.5-2.6-1.46-16.23-13.32-17.69-11.8.55,10.8,11.43,17.35,16.64,25.85,1.94,3.16,14.06,24.92,14.32,26.73.21,1.48.41,4.06-.9,4.98l-9.06.43c-.89,4.43,1.61,9.06.8,13.26-.72,3.76-6.42,11.12-10.38,11.74-7,1.09-25.73-9.84-35.03-10.88-7.6-.85-15.39,2.17-22.67.66-5.88-1.21-13.12-11.18-17.18-10.82-1.49.13-13.22,11.82-16.09,14.01-7.15,5.43-14.84,10.2-24.1,10.95-14.15,1.14,5.34-12.5,8.16-15.89,5.03-6.06,6.69-12.07,10.32-18.68,2.46-4.49,6.66-8.81,8.35-13.67.52-1.49,1.21-1.17-.7-2.65-17.65,10.84-24.14,45.92-50.48,35.48-.31-1.39,14.06-11.91,16.51-14.47,26.8-28.1,29.8-80.49,43.47-116.53,16.83-44.38,57.86-66.98,93.91-94.09,8.18-6.15,25.75-23.42,34.6-24.4,19.93-2.2,31.62,8.14,44.48,20.53,11.27,10.86,18.9,8.51,32.81,13.19,17.61,5.92,22.62,13.68,36.29,21.71,7.58,4.45,21.9,4.39,31.3,8.7,12.75,5.84,21.08,16.78,35.61,21.39,13.36,4.24,26.28,5.43,39.69,11.31,26.22,11.5,61.28,48.87,91.32,35.68,22.05-9.68,11.66-33.45.02-47.03-16.2-18.9-55.11-42.25-16.69-64.64,12.5-7.29,23.14-6.5,34.66-11.34,4.04-1.7,10.71-10.23,11.98-3.95,3.97,19.68-4.67,36.68-24.76,41.17-6.21,1.39-21.05-.18-15.25,9.85,2.92,5.05,15.67,14.04,20.56,19.43,19.67,21.64,28.37,50.41,1.96,70.99-8.13,6.33-22.71,9.6-32.85,8.89-6.55-.46-19.63-7.54-18.57,2.53.9,8.6,3.75,14,2.98,24.14-.51,6.7-6.7,20.35-5.61,24.47,3.85,14.49,24.07,6.94,30.29,12.29ZM1246.75,719.47c-4.66,1.21-17.91,16.81-20.55,21.48-.98,1.73-10.16,22.57-4.7,22.28,3.73-7.82,8.52-15.21,14.48-21.5,3.74-3.95,17.59-13.56,16.85-18.74-.47-3.3-2.91-4.34-6.08-3.52ZM1170.9,841.16c2.48-5.05-1.78-10.6-4.49-14.83-1.93-3.02-6.15-10.94-10.41-8.64-1.65.89-8.44,11.14-10.49,13.57-3.03,3.58-7.16,6.24-9.71,10.29-3.14,5.01-7.75,17.4-2.31,21.67,3.89-3.85,3.16-9.71,6.49-14.49,2.08-2.97,13.78-13.12,16.98-14.08,8.21-2.46,5.83,8.33,13.93,6.5ZM1154.65,894.38c-3.56,1.2-.45,10.34,1.77,11.95,1.72,1.24,9.89,1.73,11.16-.01,2.03-6.54-6.84-13.99-12.93-11.94Z"/>
    <path d="M972,879.26c-.82.75,8.54,13.93,9.54,15.95,5.23,10.56,3.88,16.58,14.13,24.87,4.58,3.7,13.55,7.11,16.83,10.17,1.04.97,2.11,1.36.51,2.52-10.78,2.01-22.84-1.26-31.93-7.1-4.9-3.15-13.34-13.96-18.55-13.44-1.58.16-8.25,6.69-10.84,8.22-12.77,7.53-19.78,2.36-33.09,3.91-15.35,1.79-44.8,22.92-45.67-6.59-.26-8.7,5.83-9.73,6.05-17.51l-7.36.92-1.48-2.22c.66-8.84,12.11-13.83,15.28-19.77,1.34-2.51,1.7-6.89,3.07-9.93s9.04-10.75,2.71-10.37c-5.31.31-15.45,1.5-20.66,2.42-4.8.85-8.86,4.5-15.33,4.67-15.6.41-3.54-10.34-.95-18.94,1.91-6.34,3.84-16.97,1.67-23.23-.42-1.21-.65-2.92-2.43-2.55-1.02.21-4.78,16.8-6.03,19.98-1.38,3.49-6.06,13.14-8.48,15.52-7.74,7.6-26.56,1.51-22.22,15.22s20.01,27.59,18.13,42.69c-.57,4.57-3.7,9.78-3.91,14.57,3.41,3.33,11.92-13.1,12.77-15.72,2.25-6.95.67-8.39-1.91-14.63-2.16-5.23-13.47-24.18-13.74-27.32-.44-5.04,12.64-2,14.88.19.73.71,7.04,15.64,8.49,18.51,3.92,7.76,8.13,9.95,6.45,20.42-.69,4.27-11.54,22.62-15.21,24.78-4.08,2.4-10.78,1.59-15.95,3.05-7,1.98-15.81,7.04-23.26,9.74-13.29,4.83-28.61,12.73-40.41,1.37-3.62-3.49-8-13.59-10.72-15.28-4.02-2.51-10.55.16-13.41-1.59-.93-.58-10.67-17.12-11.26-18.83-2.88-8.44,18.81-8.26,23.78-7.69,17.55,2.01,14.55,29.78,35.99,27.99,5.94-.5,20.94-6.16,22.95-12.03,7.64-22.27-32.55-33.58-41.19-49.72-1.32-2.46-5.18-18.87-8.74-11.22-2.19,4.7,1.55,11.34,1.37,16.31-1.18,3.88-19.38,2.98-23.38,2.66-13.54-1.09-23.04-5.23-38-3.97-9.49.8-26.64,7.65-33.87-2.27-3-4.12-4.75-16.08-4.73-21.26s2.87-14.65,2.1-18.96c-1.35-7.51-5.58.43-6.55,4.44-4.02,16.51-1.67,29.9-12.06,44.94-28.34,41.04-85.35,6.81-109.41,52.57,3.79,4.33,8.42-4.07,11.52-6.46,5.82-4.48,14.43-9.4,21.47-11.53,31.77-9.6,58.02,6.76,83.42-26.58,1.38-1.81,5.6-9.89,6.18-9.99,2.23-.38,6.18,2.23,6.42,4.6s-8.34,17.72-10.21,20.78c-6.39,10.5-7.3,7.94-16.83,13.17-6.59,3.62-11.89,8.19-19.74,9.26-11.77,1.61-22.93-3.69-34.73-2.72-13.76,1.13-21.13,14.86-34.54,19.45-9.34,3.19-11.36-1.28-18.49-.98-9.06.39-10.73,12.23-16.08,17.4-8.82,8.53-19.92,3.72-30.37,2.07.65-6.57,2.36-19.34,8.7-22.74,5.81-3.11,6.95-1.71,12.25-7.75,7.94-9.04,8.66-7.93,17.35-14.65,10.82-8.37,8.34-14.22,13.49-24.51,4.74-9.46,11.92-5.68,20.59-7.41,5.85-1.17,21.18-9.07,21.56-15.48.25-4.15-6.72-18.58-7.71-25.19-.7-4.63-.32-23.34-2.7-25.37-1.66-1.41-17.04,2.91-21.02,3.16-43.83,2.77-69.79-41.96-40.05-76.05,8.11-9.3,21.52-16.94,28.56-25.44,11.17-13.48-13.58-10.83-19.46-11.63-17.53-2.4-33.97-27.19-24.57-43.91l21.29,15.19c13.97,5.28,39.5,4.38,46.48,20.52,12.61,29.14-33.41,43.02-43.29,64.3-12.78,27.53,9.42,48.12,37.3,41.3,30.69-7.51,48.61-37.59,79.98-43.02,6.76-1.17,13.68-1.05,20.43-2.57,23.39-5.29,31.51-27.34,54.75-32.25,7.62-1.61,14.76.36,21.44-2.56,8.29-3.62,14.61-13.91,22.92-19.08,9.91-6.17,20.63-7.87,31.21-11.79,35.67-13.23,50.19-39.85,90.4-11.43,28.29,19.99,73.61,63.02,89.25,93.75,12.58,24.71,9.59,63.79,24.06,90.94,1.77,3.32,6.64,6.58,9.18,9.82,7.66,9.71,11.46,22.06,22.09,29.91,3.33,2.46,7.71,3.18,10.48,6.5-5.47,5.82-17.96.7-23.71-3.27-13.9-9.6-16.2-29.75-33.27-34.22ZM852.71,736.56c-1.59-1.31-4.49-1.59-6.11-.41-3.02,2.19,4.19,12.51,5.43,15.58,2.96,7.31,3.35,15.28,5.88,22.12.51,1.37-.36,1.71,2.09,1.4,1.72-9.69,2.81-20.86-1.44-30.05-.66-1.43-4.89-7.86-5.84-8.64ZM954,857.26c8.13.91,7.23-12.49,5.49-18-1.43-4.52-11.13-18.58-14.52-22.48-3.41-3.92-7.04-5.73-10.38-.44-1.51,2.4-8.4,17.3-8.45,19.41-.03,1.2.91,2.28.87,3.5,5.19-3.09,7.08-11.71,14.36-7.86,8.42,4.45,13.8,16.47,12.63,25.87ZM935.5,892.66c-4.32-.14-12.08,7.55-13.07,11.55-1.26,5.08,12.68,3.48,15.05,1.02,2.03-2.1,2.34-9.37.52-11.52-.75-.52-1.57-1.02-2.5-1.05Z"/>
    <path d="M624,365.25h-201c.84,65.19,90.94,82.31,119.59,25.92l72.4,32.58c1.2.7,1.06,1.59.87,2.78-.33,2.06-8.94,13.73-10.89,16.19-65.26,82.29-203.98,72.95-257.14-18.8-75.53-130.34,59.84-278.4,197.85-216.85,61.56,27.46,85.34,94.13,78.33,158.17ZM533,313.25c1.03-39.8-40.17-66.45-76.68-51.18-21.05,8.8-33.08,28.77-34.32,51.18h111Z"/>
    <path d="M1574,209.25v164.5c0,42.36,52.4,64.49,84.92,38.92,7.8-6.13,19.08-21.82,19.08-31.92v-171.5h93v192.5c0,7.54-7.01,24.23-10.83,31.17-24.14,43.95-83.07,69.12-131.68,70.32-64.62,1.6-142.97-36.65-147.53-108.45-3.77-59.25,2.95-122.43,0-182.09l1.55-3.45h91.5Z"/>
    <rect x="1814" y="9.25" width="91" height="479"/>
    <rect x="1970" y="9.25" width="91" height="479"/>
    <polygon points="387 1230.25 387 1121.25 406 1121.25 406 1275.25 293 1159.25 293 1270.25 275 1270.25 275 1114.25 387 1230.25"/>
    <polygon points="1765 1230.25 1765 1121.25 1783 1121.25 1783 1275.25 1672 1159.25 1672 1268.75 1670.5 1270.25 1653 1270.25 1653 1114.25 1765 1230.25"/>
    <path d="M906,1211.25h-39v-17h60c1.86,34.07-16.32,66.12-50.22,75.28-72.1,19.49-124.9-67.83-77.75-124.75,31.15-37.61,88.98-37.45,119.9.11l-12.43,13.34c-38.27-48.71-112.25-18.46-106.48,43.5,2.33,25.01,25.19,50.71,50.61,53.39,26.7,2.82,54.05-16.19,55.38-43.88Z"/>
    <path d="M1224,1270.25v-150c9.8.37,19.74-.49,29.54-.04,57.1,2.61,99.85,38.17,81.4,99.48-14.67,48.75-67.78,52.53-110.94,50.56ZM1242,1253.25c30.25,1.05,66.94-6.47,75.28-40.22,6.79-27.45-1.52-56.21-28.61-67.96-5.68-2.46-20.34-6.83-26.17-6.83h-20.5v115Z"/>
    <path d="M641,1120.25c25.95.86,62.54-4.99,76.83,22.67s-1.36,58.01-30.82,62.82l45.99,64.51h-21.5l-43.01-61.99-8.49-1.01v61.5l-1.5,1.5h-17.5v-150ZM660,1191.25h15.5c2.79,0,11.52-2.35,14.49-3.51,13.16-5.16,17.11-17.08,14.56-30.53-3.53-18.61-29.36-20.41-44.54-19.96v54Z"/>
    <path d="M1409,1120.25c9.78.38,19.71-.52,29.49.01,21.52,1.17,42.66,6.21,49.79,29.21,8.14,26.23-6.32,51.08-33.27,56.27l45.99,64.51h-21.5l-43.7-62.79-7.8-.21v61.5l-1.5,1.5h-17.5v-150ZM1428,1191.25h15.5c2.94,0,12.17-2.49,15.19-3.81,12.25-5.32,16.48-17.56,13.87-30.25-3.85-18.71-29.3-20.27-44.56-19.94v54Z"/>
    <path d="M1877,1121.25v64l63.5-64h23.5l-66.04,66.5,67.04,82.5h-23.5l-55.63-68.86c-1.86-1.47-8.87,5.79-8.87,6.36v62.5h-18v-149h18Z"/>
    <polygon points="565 1121.25 565 1138.25 504 1138.25 504 1179.25 562.5 1179.25 564 1180.75 564 1196.25 504 1196.25 504 1253.25 565 1253.25 565 1270.25 486.5 1270.25 485 1268.75 485 1121.25 565 1121.25"/>
    <polygon points="196 1121.25 196 1138.25 134 1138.25 134 1179.25 194 1179.25 194 1196.25 134 1196.25 134 1253.25 196 1253.25 196 1270.25 116 1270.25 116 1121.25 196 1121.25"/>
    <path d="M1000.5,1121.25c13.21,19.71,23.83,41.42,36.26,61.71.48.78-.26,1.68,1.73,1.29l35.51-63.01h22l-49,84.5v64.5h-18v-65.5l-49-83.5h20.5Z"/>
    <rect x="1560" y="1121.25" width="19" height="149"/>
    <path d="M2147.76.51c46.97-6.36,71.02,48.29,35.72,76.72-29.23,23.53-72.97-.03-70.34-37.35,1.24-17.7,16.49-36.91,34.62-39.37ZM2149.76,6.51c-42.91,6.19-39.26,71.85,4.77,73.74,53.66,2.3,50.47-81.7-4.77-73.74Z"/>
    <path d="M770.22,910.04c-.6-1.08-.11-2.57-.23-3.79l23.37-.86,6.47,16.21c-.36,1.95-6.86,5.67-8.81,6.17-13.74,3.55-10.53-6.47-16.61-14.45-1.28-1.68-4.07-3.05-4.2-3.29Z"/>
    <path d="M1607.77,936.43c11.48-2.79,8.95,20.97,14.24,26.36-.07,3.63-10.75,4.97-13.56,6.23-.98-.17-1.22-1.38-1.54-2.17-.64-1.55-5.85-21.06-5.9-22.21-.11-2.92,4.13-7.57,6.76-8.21Z"/>
    <path d="M474.93,967.21c-.6.44-11-2.38-12.25-3.13-4.86-2.92,1.41-6.43,2.12-9.53,1.2-5.29-.63-11.65,3.71-16.29,5.4-5.77,13.34.21,13.4,5.47.06,4.79-6.57,17.59-6.97,23.48Z"/>
    <path d="M1301.75,926.99c-3.11,2.95-15.16-.29-17.77-3.21-4.38-4.9-.33-16.25,6.61-16.45,1.96-.06,3.86,1.06,5.92,1.01,3.36-.07,7.05-2.51,10.07-.15,1.53,2.13-3.03,17.1-4.82,18.8Z"/>
    <path d="M1585.34,932.91c-1.3-1.26-8.99-12.85-8.98-14.16.01-2.41,3.85-5.33,6.21-5.49,3.32-.21,16.97,10.17,17.46,13.54,1.11,7.65-9.28,11.33-14.69,6.1Z"/>
    <path d="M500.65,912.45c2.22-.21,5.98,3.04,6.4,5.35.28,3.27-8.52,14.91-11.99,16-7.34,2.3-15.72-2.44-10.95-9.95.58-.92,15.54-11.31,16.54-11.4Z"/>
    <path d="M2162.5,19.25c15.84,2.23,18.83,22.25,2.49,25.5,10.38,2.92,10.3,13.34,10.02,22.51h-7.01c1.2-16.19-5.4-20.84-21-19.01v19l-6.35-.16-1.65-1.34V19.25c7.33.73,16.41-1,23.5,0ZM2147,42.25c7.43-.25,21.09,2.29,21.09-8.5,0-10.79-13.66-8.25-21.09-8.5v17Z"/>
  </g>
</svg>